<svg xmlns="http://www.w3.org/2000/svg" width="14" height="14" viewBox="0 0 14 14">
  <path fill="#3273C9" d="M35,0 L35,5.72727273 L34.1515152,5.72727273 L34.1515152,1.44836364 L26.8150909,8.78478788 L26.2152121,8.18490909 L33.5516364,0.848484848 L29.2727273,0.848484848 L29.2727273,0 L35,0 Z M32.4545455,12.9393939 C32.4545455,13.0543636 32.3573939,13.1515152 32.2424242,13.1515152 L22.0606061,13.1515152 C21.9456364,13.1515152 21.8484848,13.0543636 21.8484848,12.9393939 L21.8484848,2.75757576 C21.8484848,2.64260606 21.9456364,2.54545455 22.0606061,2.54545455 L28.8484848,2.54545455 L28.8484848,1.6969697 L22.0606061,1.6969697 C21.4757879,1.6969697 21,2.17275758 21,2.75757576 L21,12.9393939 C21,13.5242121 21.4757879,14 22.0606061,14 L32.2424242,14 C32.8272424,14 33.3030303,13.5242121 33.3030303,12.9393939 L33.3030303,6.15151515 L32.4545455,6.15151515 L32.4545455,12.9393939 Z" transform="translate(-21)"/>
</svg>
