<svg xmlns="http://www.w3.org/2000/svg" width="31" height="42" viewBox="0 0 31 42">
  <path fill="#6E6E6E" fill-rule="evenodd" stroke="#FFF" d="M240.265451,521 C248.046606,521 254.530902,527.322188 254.530902,535.265451 C254.530902,541.749747 246.101317,553.259372 241.400203,560.392097 C240.751773,561.202634 239.617021,561.202634 239.130699,560.392097 C234.429585,553.259372 226,541.749747 226,535.265451 C226,527.322188 232.322188,521 240.265451,521 Z M240.265451,529.915907 C243.183384,529.915907 245.452888,532.347518 245.452888,535.265451 C245.452888,538.183384 243.183384,540.452888 240.265451,540.452888 C237.347518,540.452888 234.915907,538.183384 234.915907,535.265451 C234.915907,532.347518 237.347518,529.915907 240.265451,529.915907 Z" transform="translate(-225 -520)"/>
</svg>
