<svg xmlns="http://www.w3.org/2000/svg" width="80" height="80" viewBox="0 0 80 80">
  <g fill="#3273C9" transform="translate(-21 -27)">
    <path d="M95.5954582,27 L63.3370992,27 C60.4659363,27 58.1014493,29.3888289 58.1014493,32.2895497 L58.1014493,56.7750458 C58.1014493,59.6757666 60.4659363,62.0645955 63.3370992,62.0645955 L65.9549241,62.0645955 L65.9549241,69.6576587 C65.9549241,71.9611723 68.741641,73.0702714 70.3461143,71.4492804 L79.7196166,61.9792802 L95.7643501,61.9792802 C98.635513,61.9792802 101,59.5904513 101,56.6897305 L101,32.2042344 C100.831108,29.3035136 98.466621,27 95.5954582,27 Z"/>
    <path d="M86.372394,89.7412827 L76.3099555,81.7928019 C74.1959978,80.186194 71.2364571,80.4398689 69.5452909,82.4692683 C67.7695665,84.583226 66.5011919,85.9361589 66.1629586,86.2743921 C63.1188596,89.3184912 56.6924282,84.8369009 50.012322,78.1567946 C43.3322157,71.4766884 38.7660671,65.050257 41.8947245,62.006158 C42.2329577,61.6679248 43.6704489,60.3995501 45.6998483,58.6238257 C47.7292477,56.9326596 47.9829226,53.8885605 46.3763148,51.8591611 L38.3432756,41.627606 C36.9903427,39.8518815 34.5381518,39.2599734 32.5087524,40.1901147 C29.8028866,41.373931 24.8985047,45.4327298 23.5455718,46.7011044 C16.2735574,53.9731188 25.3212963,70.7156636 41.3028163,86.6971837 C57.2843364,102.678704 74.0268812,111.726443 81.2988956,104.454428 C82.5672702,103.186054 86.626069,98.2816717 87.8098853,95.4912476 C88.7400266,93.4618482 88.1481185,91.0942156 86.372394,89.7412827 Z"/>
  </g>
</svg>
