<svg xmlns="http://www.w3.org/2000/svg" width="153" height="78" viewBox="0 0 153 78">
  <g fill="#3273C9">
    <path d="M63.04,20.12 C63.04,14.84 64.8,10.04 67.52,6.04 C66.4,5.88 65.28,5.72 64.16,5.72 C54.72,5.72 46.88,13.4 46.88,23 C46.88,26.36 47.84,29.56 49.6,32.28 L46.56,39.16 C46.08,40.12 47.04,41.08 48,40.6 L54.88,37.56 C57.6,39.32 60.8,40.28 64.16,40.28 C66.88,40.28 69.28,39.64 71.52,38.68 C66.4,34.2 63.04,27.48 63.04,20.12 Z"/>
    <path d="M107.68 38.84L104 31C105.92 27.96 107.2 24.12 107.2 20.28 107.2 9.24 98.24.28 87.2.28 76.16.28 67.2 9.08 67.2 20.12 67.2 31.16 76.16 40.12 87.2 40.12 91.2 40.12 94.88 39 97.92 36.92L105.76 40.6C107.04 41.08 108.16 39.96 107.68 38.84zM76.8 23.16C75.04 23.16 73.76 21.72 73.76 20.12 73.76 18.36 75.2 17.08 76.8 17.08 78.56 17.08 79.84 18.52 79.84 20.12 79.84 21.88 78.4 23.16 76.8 23.16zM87.2 23.16C85.44 23.16 84.16 21.72 84.16 20.12 84.16 18.36 85.6 17.08 87.2 17.08 88.96 17.08 90.24 18.52 90.24 20.12 90.24 21.88 88.8 23.16 87.2 23.16zM97.6 23.16C95.84 23.16 94.56 21.72 94.56 20.12 94.56 18.36 96 17.08 97.6 17.08 99.36 17.08 100.64 18.52 100.64 20.12 100.64 21.88 99.36 23.16 97.6 23.16zM38.24 46.04C37.92 45.88 37.44 45.88 37.12 46.04 33.92 48.44 29.76 49.88 25.44 49.88 21.12 49.88 16.96 48.44 13.76 46.04 13.44 45.72 12.96 45.72 12.64 46.04 4.96 51 .96 60.76.96 71.96.96 79.8 49.92 79.8 49.92 71.96 49.76 60.76 45.92 51 38.24 46.04z"/>
    <circle cx="25.28" cy="30.04" r="14.56"/>
    <path d="M141.12,46.04 C140.8,45.88 140.32,45.88 140,46.04 C136.8,48.44 132.64,49.88 128.32,49.88 C124,49.88 119.84,48.44 116.64,46.04 C116.32,45.72 115.84,45.72 115.52,46.04 C107.84,51 103.84,60.76 103.84,71.96 C103.84,79.8 152.8,79.8 152.8,71.96 C152.8,60.76 148.96,51 141.12,46.04 Z"/>
    <circle cx="128.32" cy="30.04" r="14.56"/>
  </g>
</svg>
