<svg xmlns="http://www.w3.org/2000/svg" width="31" height="42" viewBox="0 0 31 42">
  <path fill="#3273C9" fill-rule="evenodd" stroke="#FFF" d="M333.265451,506 C341.046606,506 347.530902,512.322188 347.530902,520.265451 C347.530902,526.749747 339.101317,538.259372 334.400203,545.392097 C333.751773,546.202634 332.617021,546.202634 332.130699,545.392097 C327.429585,538.259372 319,526.749747 319,520.265451 C319,512.322188 325.322188,506 333.265451,506 Z M333.265451,514.915907 C336.183384,514.915907 338.452888,517.347518 338.452888,520.265451 C338.452888,523.183384 336.183384,525.452888 333.265451,525.452888 C330.347518,525.452888 327.915907,523.183384 327.915907,520.265451 C327.915907,517.347518 330.347518,514.915907 333.265451,514.915907 Z" transform="translate(-318 -505)"/>
</svg>
