<svg xmlns="http://www.w3.org/2000/svg" xmlns:xlink="http://www.w3.org/1999/xlink" width="201" height="250" viewBox="0 0 201 250">
  <defs>
    <path id="human-yellow-a" d="M124.824176,0 C161.274969,0 190.824176,23.281193 190.824176,52 C190.824176,63.8245384 185.814825,74.7272615 177.376921,83.462693 C201.581435,101.674271 217.230769,130.627793 217.230769,163.233202 C217.230769,218.352529 172.508444,263.035573 117.340659,263.035573 C94.430176,263.035573 73.321154,255.329375 56.4685693,242.369799 C52.0287292,252.150792 41.7699404,259 29.8241758,259 C13.8079181,259 0.824175824,246.687831 0.824175824,231.5 C0.824175824,217.464811 11.9119635,205.885365 26.2343843,204.208617 C20.5901705,191.70912 17.4505495,177.837488 17.4505495,163.233202 C17.4505495,126.470393 37.3450899,94.3501226 66.9643004,77.0333271 C61.7756361,69.6096055 58.8241758,61.0763651 58.8241758,52 C58.8241758,23.281193 88.3733823,0 124.824176,0 Z"/>
  </defs>
  <g fill="none" fill-rule="evenodd" transform="translate(-17 -14)">
    <ellipse cx="117.516" cy="163.233" fill="#F2C9E1" rx="99.89" ry="99.802"/>
    <g transform="translate(.176)">
      <mask id="human-yellow-b" fill="#fff">
        <use xlink:href="#human-yellow-a"/>
      </mask>
      <g mask="url(#human-yellow-b)">
        <g transform="translate(-32 .19)">
          <g transform="translate(81.099)">
            <path fill="#784931" d="M37.7241838,9.02562541 C43.4553153,19.6986706 42.7743079,46.771735 35.367331,48.6793059 C32.4134533,49.4400388 26.1208316,47.5765606 19.7163954,43.7197263 L23.7362637,72.1343874 L0,72.1343874 L8.17126215,34.0808978 C3.61410836,28.736329 0.529756898,22.1865207 1.04516341,14.8472865 C2.5302167,-6.29942745 31.9930523,-1.64741982 37.7241838,9.02562541 Z" transform="translate(53.407 30.632)"/>
            <path fill="#191847" d="M101.646296,24.8620927 C101.154768,23.1358686 99.8326797,21.657861 98.0509448,21.2193776 C97.6188767,21.1130177 97.1726606,21.0700584 96.7280744,21.0879689 C96.5685998,21.0943284 96.5238739,21.1402728 96.4493524,21.0288512 C96.3940643,20.9462421 96.3928256,20.7444243 96.3700714,20.647344 C96.2992662,20.3454609 96.2107272,20.0473415 96.1014551,19.7569444 C95.7286521,18.7664794 95.1021631,17.889902 94.3469078,17.1514823 C92.9342596,15.7700358 91.0255187,14.8166248 89.042452,14.6441387 C87.9570985,14.549784 86.8796339,14.725969 85.8535455,15.0787285 C85.322311,15.261338 84.8071805,15.4887237 84.3054808,15.74012 C84.1544167,15.8157855 83.6643222,16.1863906 83.5127365,16.1623801 C83.3453077,16.1359037 83.0088201,15.7201978 82.8726864,15.6158495 C81.1899875,14.3259673 79.1120574,13.818827 77.0161326,13.8339921 C74.650418,13.8517927 72.3723948,13.9698983 70.3993685,15.410787 C69.9817092,15.71585 69.5839354,16.0498553 69.2051993,16.4015115 C69.0057582,16.5866519 68.8125761,16.7787357 68.6283262,16.9788015 C68.5171633,17.0995028 68.4089344,17.2229297 68.3047478,17.3496661 C68.1279304,17.5647871 68.1562916,17.6354558 67.9087994,17.4853578 C66.9592537,16.9089764 65.8589046,16.63941 64.7506013,16.7754911 C64.0924912,16.856348 63.4521803,17.0537531 62.8442076,17.3135855 C62.6372035,17.4020349 62.1580623,17.7548593 61.9374318,17.7582986 C61.7185616,17.7616731 61.2461358,17.4346113 61.0206807,17.3514831 C59.8029749,16.9023573 58.4904711,16.7916495 57.2105663,16.9991779 C55.8903039,17.2133255 54.5933824,17.7396094 53.4747778,18.4668675 C52.9367627,18.8167068 52.4673361,19.2043139 52.0902952,19.7244978 C51.9274954,19.9490932 51.7803432,20.1866672 51.5958325,20.3949095 C51.4877992,20.5168438 51.2738841,20.6419579 51.2159229,20.7962739 C51.2506083,20.703866 49.7720448,20.1343633 49.6325208,20.0979582 C48.8891967,19.9039924 48.1323115,19.9433177 47.4044394,20.1826438 C46.0357347,20.6326782 44.8586474,21.6418973 43.8912374,22.6766194 C43.3943623,23.2080947 42.9595559,23.7955729 42.5904692,24.4214678 C42.4135866,24.7212744 42.25183,25.0296469 42.1038302,25.3445736 C42.0321123,25.4971376 41.9845828,25.6879885 41.8901107,25.8254323 C41.7683206,26.0025258 41.6864969,26.0059003 41.4659316,26.0831232 C40.3457623,26.4752079 39.3246289,27.1388707 38.5470107,28.0356299 C37.7604602,28.9429018 37.2500892,30.060168 37.0361089,31.2367467 C37.0235256,31.3060526 37.0160278,31.59327 36.9754094,31.6307782 C36.9197302,31.6824332 36.6944706,31.6595908 36.6092566,31.6695844 C36.3141698,31.7041724 36.0211693,31.7556327 35.7320808,31.8240302 C35.1991511,31.9500528 34.6804347,32.1355176 34.1897535,32.3780884 C32.2769703,33.3236472 30.9091132,35.0963348 30.2396587,37.0910221 C29.5372139,39.1843471 29.5496667,41.5826052 30.3892232,43.6368644 C30.5248354,43.9686634 30.6862008,44.2907283 30.8757318,44.5954019 C30.9921105,44.7824241 31.0296646,44.7828784 30.9540999,44.9791154 C30.8698639,45.1974162 30.7159963,45.409552 30.6159824,45.622856 C30.2896657,46.3189654 30.0615373,47.0572554 29.9174494,47.8113144 C29.681041,49.0482437 29.5638799,50.3481195 29.7970937,51.5944583 C29.9053878,52.1731759 30.0940712,52.7389149 30.381921,53.2543616 C30.5286821,53.517179 30.700414,53.7664338 30.8943132,53.9969994 C30.9949792,54.1167273 31.1019041,54.2310692 31.213719,54.3406089 C31.2776783,54.4031659 31.3615231,54.4579358 31.4158984,54.5278258 C31.5486418,54.6982353 31.5765466,54.5581309 31.5080886,54.8083591 C31.4123777,55.1581984 31.1953983,55.5033653 31.0625245,55.8437951 C30.9256084,56.1946077 30.8018623,56.5502225 30.6886783,56.9093414 C30.4594416,57.6365347 30.2656075,58.3769012 30.1444042,59.1299869 C29.9116468,60.5758723 29.952526,62.1165018 30.6370414,63.443503 C30.9297158,64.0111238 31.3495919,64.5090494 31.8588546,64.8963969 C32.1081071,65.085885 32.3780926,65.2492212 32.6613134,65.3833555 C32.8068356,65.4524018 32.9926503,65.4819931 33.059022,65.6226167 C33.1304792,65.7738179 33.0244018,66.0740787 33.0002133,66.2431255 C32.7897537,67.7137353 32.6841979,69.2578042 33.1217427,70.6989524 C33.5247324,72.0263429 34.4120139,73.1983141 35.5639999,73.9742422 C37.7987967,75.47944 40.8112118,75.3945597 43.1593882,74.1895578 C43.7714684,73.8754098 44.3441037,73.4854017 44.8549311,73.0253737 C46.1556993,74.7748945 48.8324091,74.7195406 50.7335218,74.221031 C53.10204,73.6000031 55.0025659,71.9545061 56.0975688,69.7925242 C57.5948442,71.6136221 60.7371339,71.0227695 61.7754144,69.0471608 C62.0295567,68.5636416 62.1802949,68.0307386 62.2544903,67.4914761 C62.293544,67.2078928 62.2686383,66.9218435 62.2979775,66.6405315 C62.3354012,66.2820614 62.5750696,65.9337147 62.7128333,65.5869255 C62.9811237,64.9120361 63.1477049,64.2148885 63.1548767,63.4869165 C63.158593,63.106837 63.1104116,62.7364266 63.0742266,62.3593971 C63.0416927,62.0200057 63.1359041,61.7037811 63.1894317,61.3688024 C62.5819806,61.4687379 61.8419165,61.3050772 61.2696072,61.1290869 C60.7079904,60.9564061 60.1819717,60.5015696 59.785567,60.0861882 C58.8651648,59.1216156 58.302896,57.8571716 57.9183574,56.5986977 C57.074237,53.8365834 57.4202435,50.5226822 60.2008792,49.006777 C61.4962359,48.3006091 65.3769612,48.3029254 66.9197884,48.6519376 C68.5420038,49.0189087 70.3810479,52.5952413 70.4715429,52.9313881 C70.5275481,53.1394357 70.4993825,53.3969319 70.6906739,53.5355438 C71.1110715,53.8403472 71.8043886,53.3114027 72.1144709,53.0503373 C72.6495521,52.5997838 73.031222,52.0003004 73.3617766,51.3926405 C74.0820205,50.0688191 74.6626752,48.6491505 75.0728367,47.1998906 C75.3890477,46.0825594 75.5912272,44.9303806 76.0045182,43.8415376 C76.4157881,42.7580807 77.0641185,41.7896794 78.072147,41.1759195 C79.1687146,40.5082333 80.4256696,40.156577 81.6294881,39.7369776 C82.8227446,39.3211419 83.9953984,38.8128984 84.9203645,37.9305455 C85.1237175,37.7365148 85.3212679,37.5303491 85.4849804,37.301925 C85.6142031,37.1215868 85.7419263,36.776355 85.9388247,36.6620132 C86.24493,36.4841409 86.6916677,36.9466996 86.9563721,37.1146432 C88.262291,37.9433294 89.3518172,39.0990774 90.2305578,40.3616396 C91.1044085,41.617323 91.8214447,42.8255696 92.4041205,44.227717 C92.836319,45.2676306 93.1060567,46.5994338 93.8662019,47.4516762 C94.2055582,47.83221 96.7280744,48.0624225 97.5451376,47.7301979 C98.3622007,47.3979732 99.2779087,46.5353193 99.5521321,45.994694 C99.8328753,45.4413497 99.8999642,44.8334951 99.7799996,44.227717 C99.7094552,43.8713236 99.5653673,43.5384214 99.4865427,43.1883875 C99.420171,42.8943564 99.3599279,42.6164188 99.2166876,42.3470471 C98.9452025,41.8365972 98.4813829,41.469691 97.9220481,41.3162835 C98.5041371,40.7800709 98.986473,40.1386016 99.3202223,39.4215317 C99.6670112,38.6765578 99.9609244,37.7705837 100.044313,36.9529294 C100.112119,36.2888123 100.007476,35.6007497 99.6436051,35.030014 C99.2618699,34.4313093 98.5856348,34.0407171 98.0005466,33.6672567 C98.8942828,32.9686165 99.6591874,32.1189698 100.288024,31.1782779 C101.510945,29.3489385 102.267374,27.0430234 101.646296,24.8620927 Z"/>
          </g>
          <g transform="translate(0 184.783)">
            <path fill="#B28B67" d="M205.123049,-9.58614667 C186.225911,5.82277285 193.473128,140.994488 192.212075,142.695741 C191.651606,143.451853 161.696779,149.875304 102.347593,161.966094 L104.913869,172.428852 C174.34173,169.010683 211.077871,164.724928 215.122292,159.571587 C220.912744,152.193477 228.056161,110.91984 236.552542,35.7506741 L205.123049,-9.58614667 Z" transform="rotate(-55 169.45 81.421)"/>
            <path fill="#2F3676" d="M112.357993,150.95924 L116.877557,167.810427 C168.634215,173.776267 202.749356,166.432293 214.753727,155.010229 C222.75664,147.395519 229.918543,106.234071 236.239434,31.5258839 L202.617657,-16.4909894 C157.633126,17.4491503 184.501265,128.626684 183.352364,131.169832 C182.203463,133.712981 154.910457,135.713021 112.357993,150.95924 Z" transform="rotate(-55 174.299 76.722)"/>
            <path fill="#E4E4E4" d="M2.64781664,25.1030766 C1.54194621,28.0529671 0.989010989,30.2602653 0.989010989,31.7249712 C0.989010989,33.5068745 1.28612394,36.1071147 1.88034984,39.5256917 C3.94930006,39.5256917 22.5433041,39.5256917 57.6623619,39.5256917 C59.1119387,34.7376554 58.2751589,32.1527487 55.1520226,31.7709715 C52.0288863,31.3891943 49.4344439,31.0444801 47.3686955,30.7368289 L21.4422235,19.1888305 C20.942766,18.9663654 20.357532,19.1909122 20.1350669,19.6903697 C20.1313466,19.6987222 20.1277422,19.7071258 20.1242547,19.7155782 L18.4581228,23.7536512 L18.4581228,23.7536512 C15.5669155,25.1014349 13.2175094,25.7753268 11.4099044,25.7753268 C9.94145038,25.7753268 7.91357226,25.1828598 5.32627008,23.9979258 L5.32627022,23.9979255 C4.33205321,23.5425935 3.15696154,23.979446 2.70162952,24.9736631 C2.68217026,25.0161523 2.66422139,25.0593172 2.64781664,25.1030766 Z" transform="rotate(20 -343.172 643.35)"/>
            <polygon fill="#997659" points="128.571 0 77.394 122.754 27.095 226.532 38.962 226.532 168.798 0"/>
            <path fill="#E4E4E4" d="M2.64781664,25.1030766 C1.54194621,28.0529671 0.989010989,30.2602653 0.989010989,31.7249712 C0.989010989,33.5068745 1.28612394,36.1071147 1.88034984,39.5256917 C3.94930006,39.5256917 22.5433041,39.5256917 57.6623619,39.5256917 C59.1119387,34.7376554 58.2751589,32.1527487 55.1520226,31.7709715 C52.0288863,31.3891943 49.4344439,31.0444801 47.3686955,30.7368289 L21.4422235,19.1888305 C20.942766,18.9663654 20.357532,19.1909122 20.1350669,19.6903697 C20.1313466,19.6987222 20.1277422,19.7071258 20.1242547,19.7155782 L18.4581228,23.7536512 L18.4581228,23.7536512 C15.5669155,25.1014349 13.2175094,25.7753268 11.4099044,25.7753268 C9.94145038,25.7753268 7.91357226,25.1828598 5.32627008,23.9979258 L5.32627022,23.9979255 C4.33205321,23.5425935 3.15696154,23.979446 2.70162952,24.9736631 C2.68217026,25.0161523 2.66422139,25.0593172 2.64781664,25.1030766 Z" transform="translate(23.736 196.64)"/>
            <path fill="#5C63AB" d="M31.6370263,204.97321 L58.0061729,209.913922 C78.394723,179.965291 163.721638,57.1658489 173.076923,2.80846931e-14 L114.373259,2.80846931e-14 C83.1312006,41.3251205 51.0715253,174.529172 31.6370263,204.97321 Z"/>
          </g>
          <g transform="translate(21.758 81.028)">
            <path fill="#B28B67" d="M67.5572915,91.9168888 L88.2250416,91.998094 C75.4636595,133.157845 68.5744095,154.996951 67.5572915,157.515412 C65.2687759,163.181949 70.1115826,171.811988 72.1825589,176.449706 C65.437458,179.465287 66.1561557,168.297361 57.6473923,172.252463 C49.8809877,175.862497 43.9731031,182.403636 35.0001447,176.871909 C33.8969722,176.191815 32.6880749,173.631141 35.6089237,171.630109 C42.8858232,166.644809 53.3722763,157.919637 54.7891612,155.047679 C56.721337,151.131251 60.9773804,130.087654 67.5572915,91.9168888 L67.5572915,91.9168888 Z M188.684708,91.1180686 L220.232449,114.263917 C228.788845,116.570714 235.937438,119.440758 241.678228,122.874051 C243.034301,124.108641 244.673244,126.608891 239.049277,126.176785 C233.42531,125.744679 227.49029,125.542877 226.714292,127.459441 C225.938294,129.376004 229.341614,131.668004 227.772984,134.253949 C226.72723,135.977913 221.78667,131.655138 212.951304,121.285623 L181.710765,108.342339 L188.684708,91.1180686 Z"/>
            <path fill="#D8AF02" d="M121.387496,9.47023961 L129.779319,7.26487081 C163.776268,31.7819043 181.345191,83.0590731 222.520443,107.434573 L214.205045,119.800092 C146.260143,117.365634 124.006454,54.8918757 121.387496,9.47023961 Z" transform="rotate(5 171.954 63.532)"/>
            <path fill="#DDE3E9" d="M89.010989,112.648221 C123.301737,112.648221 148.525292,112.648221 164.681655,112.648221 C168.139418,112.648221 167.487868,107.65972 166.988028,105.142496 C161.219263,76.0906781 138.700191,44.7742248 138.700191,3.41969397 L116.873209,0 C98.8194906,29.0102834 92.5762018,64.7278161 89.010989,112.648221 Z"/>
            <path fill="#FFCE00" d="M115.229701,-7.10542736e-15 C115.965085,-6.21724894e-15 116.638904,0.0458447073 117.251157,0.137534122 L124.092779,0.528399154 C143.697349,66.9122474 149.104172,111.202518 140.313249,133.399209 L140.313249,133.399209 L80.7544339,133.39946 C77.2256827,141.620566 73.8489642,148.537479 70.6242784,154.150198 L70.6242784,154.150198 L54.3956044,154.150198 C52.8682455,104.808969 64.6096094,62.9305408 89.6196962,28.5149128 C86.4496534,27.6058953 83.9388401,25.4823315 82.0879121,22.1454449 C74.1101113,7.76292073 76.9912686,-0.155724096 85.5170075,-2.75862737 C94.0427464,-5.36153064 101.64592,-2.08721929e-14 115.229701,-7.10542736e-15 Z"/>
            <path fill="#000" fill-opacity=".1" d="M102.857143,133.399209 L80.7544339,133.39946 C84.8707081,123.809572 89.1938553,112.44505 93.7238753,99.3058948 C95.5967753,114.963752 98.6412629,126.328649 102.857143,133.399209 Z"/>
          </g>
        </g>
      </g>
    </g>
  </g>
</svg>
