<svg xmlns="http://www.w3.org/2000/svg" xmlns:xlink="http://www.w3.org/1999/xlink" width="201" height="249" viewBox="0 0 201 249">
  <defs>
    <path id="human-blue-a" d="M34,256 L33.9999837,247.147288 C27.5357214,250.237617 20.1683689,251.01392 12.0128895,247.035573 C-36.5934066,223.3248 78.3486992,0.0334608 133.516484,0.0334608 C188.684268,0.0334608 269.67033,72.8119387 269.67033,127.931267 C269.67033,137.312332 232.111143,165.693029 229.689225,174.300653 C217.880941,216.267929 179.294955,247.035573 133.516484,247.035573 C116.720066,247.035573 100.891904,242.893622 86.9993707,235.576244 L87,256 L34,256 Z"/>
  </defs>
  <g fill="none" fill-rule="evenodd" transform="translate(-33)">
    <ellipse cx="133.516" cy="147.233" fill="#AADDC7" rx="99.89" ry="99.802"/>
    <mask id="human-blue-b" fill="#fff">
      <use xlink:href="#human-blue-a"/>
    </mask>
    <g mask="url(#human-blue-b)">
      <g transform="translate(-14 -15)">
        <g transform="translate(82)">
          <path fill="#B28B67" d="M38.1433414,9.13393292 C43.9381521,19.9350547 43.249578,47.3329958 35.7603014,49.2634576 C32.773664,50.0333035 26.4113241,48.1475566 19.935865,44.2446031 L24,73 L0,73 L8.26160177,34.4893378 C3.65406109,29.0807313 0.535660132,22.452516 1.05677633,15.0254539 C2.55833022,-6.37502057 32.3485306,-1.66718886 38.1433414,9.13393292 Z" transform="translate(54 31)"/>
          <path fill="#191847" d="M95.4066181,38.9017011 C96.181796,38.1335173 96.604637,37.0370644 96.970412,35.9959366 C97.3502694,34.9144095 97.7193579,33.8217377 97.9715531,32.6960301 C98.4754831,30.446804 98.4802693,27.8601542 96.8757008,26.1136308 C95.5888613,24.7130885 93.6580039,24.0849092 91.8759783,23.9483875 C90.6887283,23.8573398 89.4693557,24.0236137 88.3312561,24.397755 C87.2020846,24.7689112 86.2287403,25.5086363 85.1340846,25.9677555 C85.0922975,23.5438969 84.6770959,21.0076965 83.4474146,18.9380781 C82.2641224,16.9467707 80.3775371,15.8293221 78.2290003,15.5336907 C76.0237656,15.230298 73.8461434,15.7463343 71.8719342,16.8139306 C71.3776685,17.0813024 70.888005,17.3614108 70.4194191,17.6784359 C70.027044,17.943917 69.6191137,18.2636287 69.1587196,18.3715924 C68.6454933,18.4920937 68.3910891,18.1956663 68.0575289,17.8212265 C67.6664423,17.3822075 67.2258372,16.9955285 66.7595523,16.6527315 C64.6978111,15.1372602 61.9926962,14.5141557 59.6041137,15.4225429 C58.5035673,15.8410637 57.4333948,16.5518327 56.6867499,17.531267 C56.0211941,18.4043297 55.5464414,19.7892496 54.627862,20.3975277 C54.2380641,20.6557449 53.9627664,20.3136445 53.6078524,20.0608006 C53.074745,19.6808879 52.5663049,19.2616705 52.0267546,18.8921065 C51.2688806,18.3728859 50.448326,17.9845153 49.5696008,17.7812252 C48.2832216,17.4836038 46.505522,17.5533573 46.1377221,19.2381872 C45.9996591,19.8710433 46.1055074,20.5478808 46.1501478,21.1855131 C46.2113557,22.0610635 46.2752329,22.9363153 46.3512596,23.8105721 C46.40897,24.4743744 46.4819593,25.1154894 46.6072285,25.767351 C46.674051,26.1148248 46.8831704,26.7626067 46.7341544,27.110578 C46.5479534,27.5455173 45.6885571,27.2982457 45.3214015,27.3133706 C44.5962024,27.3433218 43.8679659,27.47049 43.1974398,27.7803507 C42.6777706,28.0205574 42.1314092,28.3738025 41.9120731,28.9694434 C41.7772315,29.3353257 41.8127597,29.7111587 41.8764528,30.0875886 C41.9528477,30.5393443 41.8654998,30.778954 41.8084337,31.2347894 C40.8344451,30.7551721 37.4592643,29.6895659 37.0345824,31.4350943 C36.8932059,32.0163069 37.2151688,32.6730443 37.460829,33.1632092 C37.8916777,34.0229382 38.4565395,34.8087345 39.0340112,35.5581116 C40.2385651,37.1214452 41.6766296,38.4698465 43.2238559,39.6230176 C41.4110883,40.428914 40.9379003,42.8060049 42.5074008,44.2222691 C43.2003852,44.8475627 44.1321265,44.9867711 45.0062496,44.9467698 C45.3261876,44.9321425 45.7874102,44.8091535 46.0391451,44.8648767 C46.174631,44.8948279 46.3196892,45.0096574 46.5073629,45.0224936 C47.741002,45.1069739 49.1335978,44.8097505 50.3395323,44.5360104 C52.4883453,44.0482337 54.522658,43.0301912 56.1839244,41.4796939 C56.6100789,41.0819697 56.9621396,40.8530072 57.5357455,40.858878 C58.038387,40.8639528 58.5315481,41.0017682 59.0337294,41.0145049 C60.3624479,41.0484363 61.5604668,40.3988633 62.7942901,39.9665112 C62.8698566,41.6333306 63.3445173,43.4691107 64.0263646,44.9686611 C64.5823904,46.1914862 65.7435005,46.3692033 66.8844533,46.4764704 C70.5329989,46.819765 74.1944304,46.4366682 77.8475782,46.441743 C74.3112318,47.241072 70.6569795,47.5705353 67.1520195,48.5111623 C65.5677002,48.9362505 66.7775005,50.0040458 67.4549298,50.7442685 C68.570387,51.9632129 69.3997776,53.4735099 69.9750402,55.0646055 C71.70497,52.8096081 74.7626979,51.3237895 77.4716786,52.016548 C80.464885,52.781846 82.5725552,56.8296371 80.6585414,59.7396803 C79.5473181,61.428988 77.540618,62.0811481 75.8708838,62.8069425 C77.1734624,64.1612146 77.4885222,66.161378 78.2725362,67.846208 C78.6592047,68.6770803 79.2019765,69.6165133 80.0667112,69.9060748 C80.3866493,70.0132424 80.7618126,70.0223969 81.0141918,70.2832012 C81.3268585,70.6060971 81.4013205,70.9671037 81.8005988,71.244625 C83.3938461,72.3523221 85.8825703,72.2669462 87.294771,70.8214274 C88.571854,69.5141219 88.2395823,67.4453991 87.1729994,66.1199836 C88.8708064,65.4122993 91.9639705,64.502121 91.2892105,61.8570614 C94.96813,61.612775 103.90044,55.6462162 98.9627536,51.2862759 C101.672563,49.7547841 104.162115,46.011978 102.421509,42.7126686 C101.081193,40.1720899 97.9640977,39.0364317 95.4066181,38.9017011" transform="matrix(-1 0 0 1 140 0)"/>
        </g>
        <g transform="translate(0 187)">
          <polygon fill="#191847" points="128 0 164.255 127.227 190.707 221 210 221 181.891 0"/>
          <path fill="#2F3676" d="M118.304342,0 C117.465768,65.5742244 114.606247,101.340188 113.725779,107.297892 C112.845311,113.255595 99.5321718,151.156298 73.7863613,221 L93.7726468,221 C126.549033,153.996902 144.845651,116.096199 148.662499,107.297892 C152.479348,98.4995844 164.258515,62.7336205 182,0 L118.304342,0 Z"/>
          <path fill="#191847" d="M0,40 L1,19 L22,19 C31.9576033,26 44.9576033,31.6666667 61,36 L61,40 L23,40 L10,38 L10,40 L0,40 Z" transform="translate(72 199)"/>
          <path fill="#191847" d="M0,40 L1,19 L22,19 C31.9576033,26 44.9576033,31.6666667 61,36 L61,40 L23,40 L10,38 L10,40 L0,40 Z" transform="translate(188 199)"/>
        </g>
        <g transform="translate(22 82)">
          <path fill="#B28B67" d="M68.3079281,93.0198914 L89.2053198,93.1020711 C76.3021447,134.755739 69.3363474,156.856914 68.3079281,159.405597 C65.9939846,165.140133 70.8906002,173.873732 72.9845874,178.567103 C66.1645409,181.61887 66.8912241,170.316929 58.2879189,174.319492 C50.4352209,177.972846 44.4616931,184.59248 35.3890352,178.994371 C34.2736052,178.306117 33.0512757,175.714714 36.0045784,173.68967 C43.3623323,168.644547 53.9653015,159.814672 55.3979297,156.908251 C57.3515741,152.944826 61.6549068,131.648706 68.3079281,93.0198914 L68.3079281,93.0198914 Z M194.04441,89.1225115 L222.372314,116.757535 C230.61469,120.273345 237.368143,124.155511 242.632673,128.40403 C243.816587,129.832102 245.10547,132.568362 239.535214,131.343925 C233.964957,130.119488 228.050816,129.082079 227.003896,130.893567 C225.956977,132.705055 229.041811,135.480899 227.106974,137.851671 C225.817082,139.432186 221.479076,134.404878 214.092956,122.769747 L184.635682,105.402467 L194.04441,89.1225115 Z"/>
          <path fill="#1A7CC9" d="M122.01899,9.23199981 L130.503942,7.00082913 C148.576175,42.7520052 177.414525,74.1501034 217.01899,101.195124 L192.061793,137.56505 C151.33882,97.6857553 124.670571,55.1985909 122.01899,9.23199981 Z" transform="rotate(5 169.519 72.283)"/>
          <path fill="#DDE3E9" d="M90,114 L167,114 C149.16087,70.6251468 140.241304,33.7787236 140.241304,3.4607303 L117.014208,0 C98.7598929,29.3584068 93.6048263,65.5045499 90,114 Z"/>
          <path fill="#249FFF" d="M118.047752,-4.26325641e-14 C119.86198,0.0624731357 122.625282,0.175030894 126.337658,0.337673275 L126.337658,0.337673275 L131.950158,16.3768801 C132.543836,35.9324229 136.010826,75.3421183 142.351127,134.605966 L142.351127,134.605966 L91.8760675,134.60553 C92.008386,138.698782 92.2265651,142.830272 92.5306047,147 L92.5306047,147 L55,147 C60.6139164,83.6639633 81.1152373,34.6639633 116.503963,1.42108547e-14 L116.503963,1.42108547e-14 L116.522,0.017 L116.531583,-4.26325641e-14 Z"/>
          <path fill="#000" fill-opacity=".1" d="M106,135 L91.889057,134.999288 C91.2713571,116.643048 92.3783198,99.0548837 95.2099449,82.2347951 C96.6469231,107.748771 100.243477,125.3371 106,135 Z"/>
          <polygon fill="#FFF" fill-opacity=".2" points="103.111 104 128 92.429 128 104"/>
        </g>
      </g>
    </g>
  </g>
</svg>
