<svg xmlns="http://www.w3.org/2000/svg" width="200" height="200" viewBox="0 0 200 200">
  <g fill="none" fill-rule="evenodd">
    <ellipse cx="99.89" cy="99.802" fill="#000" opacity=".401" rx="99.89" ry="99.802"/>
    <g transform="translate(31 24)">
      <rect width="144" height="144"/>
      <path fill="#353535" fill-rule="nonzero" d="M37.1111111 14L24.8888889 14C22.7411149 14 21 15.8175979 21 18.0597186L21 110.940281C21 113.182402 22.7411149 115 24.8888889 115L37.1111111 115C39.2588851 115 41 113.182402 41 110.940281L41 18.0597186C40.9923814 15.8209006 39.2557215 14.0079532 37.1111111 14L37.1111111 14zM38.1805556 102.211886C38.1805556 102.373392 38.1190974 102.528283 38.0097012 102.642484 37.900305 102.756686 37.7519318 102.820844 37.5972222 102.820844L23.9027778 102.820844C23.5806117 102.820844 23.3194444 102.548204 23.3194444 102.211886L23.3194444 99.8340511C23.3194444 99.497733 23.5806117 99.2250933 23.9027778 99.2250933L37.5694444 99.2250933C37.8916105 99.2250933 38.1527778 99.497733 38.1527778 99.8340511L38.1805556 102.211886zM38.1805556 29.1514499C38.1805556 29.3129555 38.1190974 29.4678463 38.0097012 29.5820481 37.900305 29.6962498 37.7519318 29.7604077 37.5972222 29.7604077L23.9027778 29.7604077C23.5806117 29.7604077 23.3194444 29.487768 23.3194444 29.1514499L23.3194444 26.7881137C23.3194444 26.626608 23.3809026 26.4717172 23.4902988 26.3575155 23.599695 26.2433138 23.7480682 26.1791559 23.9027778 26.1791559L37.5694444 26.1791559C37.8916105 26.1791559 38.1527778 26.4517956 38.1527778 26.7881137L38.1805556 29.1514499zM115.908867 107.378281L96.2093264 17.1663693C95.9834614 16.1214487 95.3540242 15.2101806 94.4601045 14.6339326 93.5661847 14.0576845 92.4813729 13.8638951 91.4453853 14.0953869L79.142114 16.8059254C78.1041761 17.0368783 77.1998777 17.6741135 76.6283459 18.5773111 76.0568142 19.4805088 75.8649163 20.5756043 76.0949084 21.6214566L95.7086118 111.833369C95.9377766 112.879405 96.570078 113.79076 97.4662827 114.366751 98.3624874 114.942743 99.4491042 115.136138 100.486859 114.904351L112.775824 112.193813C113.829589 111.982548 114.754969 111.353515 115.344101 110.448012 115.933232 109.542508 116.136724 108.436449 115.908867 107.378281L115.908867 107.378281zM95.2508157 29.3493749L81.4883192 32.3915218C81.1644116 32.4629843 80.8442891 32.2565073 80.7730127 31.9301536L80.2722982 29.6233123C80.201389 29.2968773 80.4062674 28.9742569 80.7300943 28.9024244L94.4496724 25.8170241C94.7720936 25.7536726 95.0870168 25.9567961 95.1649789 26.2783924L95.6656934 28.5852337C95.7141668 28.7420326 95.6973658 28.9119491 95.6191425 29.0560242 95.5409193 29.2000994 95.4079838 29.3059747 95.2508157 29.3493749zM110.672823 100.255909L96.9103267 103.298056C96.5864191 103.369518 96.2662966 103.163041 96.1950202 102.836688L95.6943057 100.529846C95.6314447 100.204909 95.8329955 99.8875288 96.1521018 99.8089584L109.914598 96.7668114C110.238506 96.6953489 110.558628 96.9018259 110.629905 97.2281797L111.130619 99.535021C111.201529 99.8614559 110.99665 100.184076 110.672823 100.255909L110.672823 100.255909zM127.959253 121L17.040747 121C14.8091041 121 13 122.741115 13 124.888889L13 137.111111C13 139.258885 14.8091041 141 17.040747 141L127.959253 141C129.030926 141 130.058706 140.590279 130.816493 139.860971 131.57428 139.131663 132 138.142509 132 137.111111L132 124.888889C132 123.857491 131.57428 122.868337 130.816493 122.139029 130.058706 121.409721 129.030926 121 127.959253 121L127.959253 121zM29.5670628 137.833333C29.5670628 138.155499 29.2956972 138.416667 28.9609508 138.416667L26.5942275 138.416667C26.2594811 138.416667 25.9881154 138.155499 25.9881154 137.833333L25.9881154 124.152778C25.9881154 123.830612 26.2594811 123.569444 26.5942275 123.569444L28.9609508 123.569444C29.1217017 123.569444 29.2758686 123.630903 29.3895367 123.740299 29.5032048 123.849695 29.5670628 123.998068 29.5670628 124.152778L29.5670628 137.833333zM119.040747 137.833333C119.040747 138.155499 118.769381 138.416667 118.434635 138.416667L116.039049 138.416667C115.704303 138.416667 115.432937 138.155499 115.432937 137.833333L115.432937 124.152778C115.432937 123.830612 115.704303 123.569444 116.039049 123.569444L118.405772 123.569444C118.740519 123.569444 119.011885 123.830612 119.011885 124.152778L119.040747 137.833333zM67.1111111 3L54.8888889 3C52.7411149 3 51 4.80222639 51 7.02538531L51 109.974615C51 112.197774 52.7411149 114 54.8888889 114L67.1111111 114C69.2588851 114 71 112.197774 71 109.974615L71 7.02538531C71 4.80222639 69.2588851 3 67.1111111 3zM68.4027778 101.320036C68.4027778 101.65351 68.1416105 101.923844 67.8194444 101.923844L54.1388889 101.923844C53.8167228 101.923844 53.5555556 101.65351 53.5555556 101.320036L53.5555556 98.9623106C53.5555556 98.6288367 53.8167228 98.3585028 54.1388889 98.3585028L67.7638889 98.3585028C68.086055 98.3585028 68.3472222 98.6288367 68.3472222 98.9623106L68.4027778 101.320036zM68.4027778 16.9163321C68.4027778 17.2498059 68.1416105 17.5201399 67.8194444 17.5201399L54.1388889 17.5201399C53.9830308 17.5241251 53.8324102 17.4617905 53.7221683 17.3476792 53.6119264 17.2335679 53.5517054 17.0776606 53.5555556 16.9163321L53.5555556 14.5729828C53.5555556 14.2395089 53.8167228 13.969175 54.1388889 13.969175L67.7638889 13.969175C68.086055 13.969175 68.3472222 14.2395089 68.3472222 14.5729828L68.4027778 16.9163321z"/>
    </g>
  </g>
</svg>
