<svg xmlns="http://www.w3.org/2000/svg" width="96" height="96" viewBox="0 0 96 96">
  <g fill="#3273C9">
    <path d="M90.2,0.5 L5.8,0.5 C3.1,0.5 0.9,2.7 0.9,5.4 L0.9,70 C0.9,72.7 3.1,74.9 5.8,74.9 L38.3,74.9 L38.3,83.8 L34,83.8 C28.9,83.8 24.8,87.9 24.8,93 L24.8,93 C24.8,94.3 25.9,95.4 27.2,95.4 L68.6,95.4 C70,95.4 71.1,94.3 71.1,92.9 C71.1,87.8 67,83.7 61.9,83.7 L57.7,83.7 L57.7,74.8 L90.2,74.8 C92.9,74.8 95.1,72.6 95.1,69.9 L95.1,5.4 C95.1,2.7 92.9,0.5 90.2,0.5 Z M48,69.7 C46.1,69.7 44.6,68.2 44.6,66.3 C44.6,64.4 46.1,62.9 48,62.9 C49.9,62.9 51.4,64.4 51.4,66.3 C51.4,68.2 49.9,69.7 48,69.7 Z M85.2,57.8 L10.8,57.8 L10.8,10.4 L85.2,10.4 L85.2,57.8 Z"/>
    <path d="M31 31.6C31.5 32.1 32.1 32.3 32.7 32.3 33.3 32.3 33.9 32.1 34.4 31.6L37.2 28.8 40 31.6C40.5 32.1 41.1 32.3 41.7 32.3 42.3 32.3 42.9 32.1 43.4 31.6 44.3 30.7 44.3 29.2 43.4 28.3L40.6 25.5 43.4 22.7C44.3 21.8 44.3 20.3 43.4 19.4 42.5 18.5 41 18.5 40.1 19.4L37.3 22.2 34.5 19.4C33.6 18.5 32.1 18.5 31.2 19.4 30.3 20.3 30.3 21.8 31.2 22.7L34 25.5 31 28.3C30.1 29.2 30.1 30.7 31 31.6zM52.7 31.6C53.2 32.1 53.8 32.3 54.4 32.3 55 32.3 55.6 32.1 56.1 31.6L58.9 28.8 61.7 31.6C62.2 32.1 62.8 32.3 63.4 32.3 64 32.3 64.6 32.1 65.1 31.6 66 30.7 66 29.2 65.1 28.3L62.3 25.5 65.1 22.7C66 21.8 66 20.3 65.1 19.4 64.2 18.5 62.7 18.5 61.8 19.4L59 22.2 56 19.3C55.1 18.4 53.6 18.4 52.7 19.3 51.8 20.2 51.8 21.7 52.7 22.6L55.5 25.4 52.7 28.2C51.8 29.2 51.8 30.7 52.7 31.6zM61.5 37L34.5 37C33.3 37 32.3 38 32.3 39.2 32.3 40.4 33.3 41.4 34.5 41.4L47.5 41.4 47.5 45C47.5 48.3 50.2 51.1 53.6 51.1 57 51.1 59.7 48.4 59.7 45L59.7 41.5 61.5 41.5C62.7 41.5 63.7 40.5 63.7 39.3 63.7 38 62.7 37 61.5 37zM55.2 45C55.2 45.9 54.5 46.6 53.6 46.6 52.7 46.6 52 45.9 52 45L52 41.5 55.3 41.5 55.3 45 55.2 45z"/>
  </g>
</svg>
