<svg xmlns="http://www.w3.org/2000/svg" width="200" height="200" viewBox="0 0 200 200">
  <g fill="none" fill-rule="evenodd">
    <ellipse cx="99.89" cy="99.802" fill="#C6DB00" opacity=".402" rx="99.89" ry="99.802"/>
    <path fill="#9DAE00" d="M154.30042 8.52537552L126.738145 2.14273386C125.493397 1.78814265 124.24865 2.14273386 123.003902 2.67462066 121.936975 3.38380307 121.047869 4.44757668 120.870048 5.68864589L107.177821 63.6643076C107.177821 64.0188988 107.177821 64.5507856 107 64.9053768 107 67.032924 108.60039 68.9831757 110.734244 69.5150625L138.296519 75.8977041C140.963836 76.4295909 143.631153 74.8339305 144.164616 72.3517921L157.856843 14.1988348C158.212485 12.9577656 157.856843 11.7166963 157.32338 10.4756271 156.612095 9.58914912 155.545168 8.87996672 154.30042 8.52537552zM104 64.0588235L104 4.76470588C104 2.11764706 101.863014 0 99.1917808 0L4.80821918 0C2.1369863 0 0 2.11764706 0 4.76470588L0 64.2352941C0 66.8823529 2.1369863 69 4.80821918 69L99.1917808 69C101.506849 69 103.465753 67.4117647 104 65.2941176 104 64.9411765 104 64.5882353 104 64.0588235zM70.1643836 46.9411765C70.1643836 50.1176471 66.4246575 52.5882353 61.7945205 52.5882353 56.9863014 52.5882353 53.4246575 50.1176471 53.4246575 46.9411765 53.4246575 43.7647059 57.1643836 41.2941176 61.7945205 41.2941176 63.9315068 41.2941176 65.890411 41.8235294 67.3150685 42.7058824L67.3150685 14.4705882 44.1643836 19.0588235 44.1643836 52.0588235C44.1643836 55.2352941 40.4246575 57.7058824 35.7945205 57.7058824 30.9863014 57.7058824 27.4246575 55.2352941 27.4246575 52.0588235 27.4246575 48.8823529 31.1643836 46.4117647 35.7945205 46.4117647 37.9315068 46.4117647 39.890411 46.9411765 41.3150685 47.8235294L41.3150685 17.8235294C41.3150685 17.8235294 41.3150685 17.6470588 41.3150685 17.6470588 41.3150685 17.4705882 41.3150685 17.4705882 41.3150685 17.2941176 41.3150685 17.2941176 41.3150685 17.1176471 41.4931507 17.1176471 41.4931507 17.1176471 41.6712329 16.9411765 41.6712329 16.9411765 41.6712329 16.9411765 41.8493151 16.7647059 41.8493151 16.7647059 41.8493151 16.7647059 42.0273973 16.5882353 42.0273973 16.5882353 42.0273973 16.5882353 42.2054795 16.5882353 42.2054795 16.4117647 42.2054795 16.4117647 42.2054795 16.4117647 42.3835616 16.4117647L68.5616438 11.2941176C68.5616438 11.2941176 68.739726 11.2941176 68.739726 11.2941176 68.739726 11.2941176 68.739726 11.2941176 68.9178082 11.2941176 68.9178082 11.2941176 68.9178082 11.2941176 69.0958904 11.2941176 69.2739726 11.2941176 69.2739726 11.2941176 69.4520548 11.2941176 69.4520548 11.2941176 69.630137 11.2941176 69.630137 11.4705882 69.630137 11.4705882 69.8082192 11.6470588 69.8082192 11.6470588 69.8082192 11.6470588 69.9863014 11.8235294 69.9863014 11.8235294 69.9863014 11.8235294 70.1643836 12 70.1643836 12 70.1643836 12 70.1643836 12.1764706 70.3424658 12.1764706 70.3424658 12.1764706 70.3424658 12.1764706 70.3424658 12.3529412 70.3424658 12.3529412 70.3424658 12.5294118 70.3424658 12.5294118 70.3424658 12.5294118 70.3424658 12.7058824 70.3424658 12.7058824L70.3424658 46.9411765 70.1643836 46.9411765z" transform="translate(21 66)"/>
  </g>
</svg>
