<svg xmlns="http://www.w3.org/2000/svg" width="200" height="200" viewBox="0 0 200 200">
  <g fill="none" fill-rule="evenodd">
    <ellipse cx="99.89" cy="99.802" fill="#FFCE00" opacity=".401" rx="99.89" ry="99.802"/>
    <g fill="#D8AF02" transform="translate(40 35)">
      <path d="M93.1205674,50.5876829 L87.9131514,55.7953987 C87.6294501,56.0791163 87.2444621,56.2411348 86.8391921,56.2411348 C86.8190338,56.2411348 86.8190338,56.2411348 86.7987517,56.2411348 C86.0894984,56.2208515 85.3803687,56.200692 84.6711154,56.099276 C79.3826947,55.5319642 74.3576935,53.1206114 70.5483785,49.311077 C66.7187814,45.5015426 64.3075673,40.4559689 63.7605703,35.1469607 C63.6591601,34.4782329 63.6390016,33.7487793 63.6187197,33.0597683 C63.5984375,32.6343155 63.7605703,32.2493053 64.06443,31.9453044 L69.271846,26.7375887 C69.8796892,32.8166171 72.5746046,38.4903522 76.9714807,42.887605 C81.3886389,47.3050173 87.062171,49.9798048 93.1205674,50.5876829 Z"/>
      <path d="M82.9787234 59.6156469L79.4418059 63.1701101C79.157195 63.4544968 78.7709726 63.6170213 78.3644033 63.6170213 78.3440561 63.6170213 78.3440561 63.6170213 78.3440561 63.6170213 77.3683889 63.5966902 76.4334159 63.51549 75.559236 63.3529655 74.0144711 63.149779 72.4695819 62.7638607 70.9450399 62.154549 68.1398726 61.0577879 65.6395394 59.4329152 63.5052054 57.3002621 61.3505242 55.147154 59.7243709 52.6489138 58.6267453 49.8662868 58.0168293 48.2820762 57.610384 46.6977417 57.4070373 45.1540694 57.2647319 44.4432264 57.1834675 43.5495279 57.1631206 42.4729738 57.1631206 42.0465177 57.3257731 41.6605994 57.610384 41.3558816L61.1676487 37.8014184C62.0822747 43.2244789 64.7045662 48.2617453 68.6277062 52.1614644 72.5508461 56.0815149 77.6326528 58.7016173 82.9787234 59.6156469zM46.0717747 26.7410008C36.664904 69.947556 39.9093446 55.0455594 39.2074726 58.2693192 39.1662048 58.3911234 39.1455708 58.4926062 39.104303 58.6144103 38.3828706 60.9693318 35.9298245 62.6950355 33.0233351 62.6950355 29.5395994 62.6950355 26.7153941 60.2181858 26.7153941 57.1526366 26.7153941 54.0872113 29.5395994 51.6103615 33.0233351 51.6103615 34.6105115 51.6103615 36.0947699 52.1382209 37.1872355 53.0111712L41.0420044 35.3083062 17.480454 35.3083062 12.5332195 58.0865509C12.5125855 58.2489977 12.4713177 58.4114446 12.4095417 58.5737674 11.7086173 60.9491343 9.23493719 62.6950355 6.32844906 62.6950355 2.84471334 62.6950355 0 60.2181856 0 57.1526363 0 54.0872111 2.84471334 51.6103613 6.32844906 51.6103613 7.91562546 51.6103613 9.37924899 52.1382207 10.4718403 52.9908497L16.3260866 26.0913372C16.4910322 25.401155 17.1094208 24.893617 17.851487 24.893617L44.5463743 24.893617C45.0204513 24.893617 45.4533861 25.0965827 45.7626435 25.4619952 46.0511409 25.8072101 46.1543105 26.2944269 46.0717747 26.7410008z"/>
      <path d="M72.8368794,65.7935026 L26.7017024,105.658691 C26.4142254,105.905143 26.0446657,106.028369 25.6956581,106.028369 C25.3055465,106.028369 24.8948829,105.884584 24.6074057,105.576582 L14.279784,95.2662109 C13.7049551,94.6910725 13.6844033,93.7669399 14.1977014,93.1712431 L54.0706696,47.0212766 C55.1437116,51.7275544 57.5029321,55.8562728 60.7640941,59.1184876 C64.3205203,62.6760516 68.8106107,64.9452111 72.8368794,65.7935026 Z"/>
      <path d="M84.822695,93.8676391 L84.822695,103.764939 C84.822695,109.917298 80.1666788,114.999764 74.2555659,115.534647 L74.2555659,121.831057 C74.2555659,126.234462 70.7129261,129.814756 66.3807541,129.814756 L11.156003,130 C11.1358632,130 11.1358632,130 11.1155997,130 C8.6458103,130 6.33812744,129.012367 4.5768158,127.242691 C2.81562765,125.473141 1.84397163,123.08632 1.84397163,120.575919 C1.84397163,118.065645 2.81562765,115.699295 4.5768158,113.909148 L11.2370568,107.118922 L9.55679871,105.411036 C8.96977803,104.814362 8.96977803,103.826604 9.55679871,103.22993 L14.921417,97.7771022 L23.4237772,106.419265 L18.0591589,111.872092 C17.7757182,112.160194 17.3910837,112.324716 16.9861859,112.324716 C16.5814115,112.324716 16.1967772,112.160194 15.9133363,111.872092 L13.3828793,109.300028 L6.72276177,116.090254 C5.5485951,117.283727 4.88051983,118.88863 4.88051983,120.575919 C4.88051983,122.263209 5.5485951,123.868238 6.72276177,125.061585 C7.89680495,126.255059 9.45560492,126.913522 11.1155995,126.913522 C11.135863,126.913522 11.135863,126.913522 11.135863,126.913522 L66.3807558,126.728278 C69.0326698,126.728278 71.2190191,124.526576 71.2190191,121.831057 L71.2190191,115.534647 C65.2876427,114.999763 60.631503,109.937895 60.631503,103.764939 L60.631503,93.8676388 C60.631503,93.0034603 61.3198418,92.3244 62.1497772,92.3244 L65.1661858,92.3244 L65.1661858,83.5999765 C65.1661858,82.7562688 65.8544009,82.0567376 66.68446,82.0567376 C67.5143954,82.0567376 68.2027342,82.7562688 68.2027342,83.5999765 L68.2027342,92.3244 L77.2515891,92.3244 L77.2515891,83.5999765 C77.2515891,82.7562688 77.9399279,82.0567376 78.7698633,82.0567376 C79.6200623,82.0567376 80.2881375,82.7562688 80.2881375,83.5999765 L80.2881375,92.3244 L83.3044225,92.3244 C84.13448,92.3244002 84.822695,93.0034605 84.822695,93.8676391 Z"/>
      <path d="M43.336686 38.725338C51.1330897 29.5290436 50.6790942 15.8175657 41.7174006 7.12909339 32.7245358-1.55077252 18.6272867-2.01113683 9.1280945 5.55950083L43.336686 38.725338zM6.86560243 7.63203565C5.19845637 9.34525581 3.7973295 11.2735494 2.73819095 13.3640071-1.68971077 22.0015231-.366048699 32.9811138 7.34344931 40.4559899 15.0831136 47.95968 26.4156108 49.2044646 35.3073652 44.9209689 37.4803402 43.8766607 39.4519964 42.5187041 41.1992902 40.9192812L6.86560243 7.63203565z" transform="translate(70.993)"/>
    </g>
  </g>
</svg>
