<?xml version="1.0" encoding="UTF-8"?>
<svg width="90px" height="90px" viewBox="0 0 90 90" version="1.1" xmlns="http://www.w3.org/2000/svg" xmlns:xlink="http://www.w3.org/1999/xlink">
    <!-- Generator: Sketch 58 (84663) - https://sketch.com -->
    <title>icon-house</title>
    <desc>Created with Sketch.</desc>
    <g id="Hoivakotiportaali" stroke="none" stroke-width="1" fill="none" fill-rule="evenodd">
        <g id="Hoivakotilistaus---pelkkä-lista" transform="translate(-134.000000, -341.000000)" fill="#FFFFFF" fill-rule="nonzero">
            <g id="icon-house" transform="translate(134.000000, 341.000000)">
                <g id="Group">
                    <path d="M42.7,1.1 L1.9,28.3 C0.7,29.1 0,30.4 0,31.8 L0,31.8 C0,35.1 3.7,37.1 6.5,35.3 L42.7,11.2 C44.1,10.3 45.9,10.3 47.3,11.2 L83.5,35.3 C86.3,37.1 90,35.2 90,31.8 L90,31.8 C90,30.4 89.3,29.1 88.1,28.3 L47.3,1.1 C45.9,0.2 44.1,0.2 42.7,1.1 Z" id="Path"></path>
                    <path d="M11.8,38.3 L42.6,17.2 C44,16.2 45.9,16.2 47.3,17.2 L78.1,38.3 C79.2,39.1 79.9,40.4 79.9,41.7 L79.9,89.5 L10,89.5 L10,41.8 C10,40.4 10.7,39.1 11.8,38.3 Z" id="Path"></path>
                </g>
            </g>
        </g>
    </g>
</svg>