<svg xmlns="http://www.w3.org/2000/svg" width="200" height="200" viewBox="0 0 200 200">
  <g fill="none" fill-rule="evenodd">
    <ellipse cx="99.89" cy="99.802" fill="#249FFF" opacity=".401" rx="99.89" ry="99.802"/>
    <g fill="#1A7CC9" transform="translate(24 25)">
      <path d="M10.3770492 32.2380952L12 35.2063492C12 35.3809524 12 35.5555556 12 35.7301587 11.8196721 35.9047619 11.6393443 35.9047619 11.6393443 35.9047619L8.21311475 35.3809524 5.68852459 37.8253968C5.68852459 37.8253968 5.50819672 38 5.32786885 38 5.32786885 38 5.14754098 38 5.14754098 38 4.96721311 38 4.78688525 37.8253968 4.78688525 37.6507937L4.24590164 34.3333333 1.18032787 32.7619048C1 32.7619048 1 32.5873016 1 32.4126984 1 32.2380952 1.18032787 32.0634921 1.18032787 32.0634921L4.24590164 30.6666667 4.78688525 27.3492063C4.78688525 27.1746032 4.96721311 27 5.14754098 27 5.32786885 27 5.50819672 27 5.68852459 27.1746032L8.03278689 29.6190476 11.4590164 29.0952381C11.6393443 29.0952381 11.8196721 29.0952381 11.8196721 29.2698413 12 29.4444444 12 29.6190476 11.8196721 29.7936508L10.3770492 32.2380952zM18.0793651 108C17.9047619 108 17.7301587 108 17.5555556 108L14.5873016 106.35 11.6190476 108C11.6190476 108 11.4444444 108 11.4444444 108 11.2698413 108 11.2698413 108 11.2698413 108 11.0952381 107.816667 11.0952381 107.816667 11.0952381 107.633333L11.6190476 104.15 9.17460317 101.766667C9 101.583333 9 101.4 9 101.216667 9 101.033333 9.17460317 100.85 9.34920635 100.85L12.6666667 100.3 14.0634921 97.1833333C14.0634921 97 14.2380952 97 14.4126984 97 14.5873016 97 14.7619048 97.1833333 14.7619048 97.1833333L16.3333333 100.3 19.6507937 100.666667C19.8253968 100.666667 20 100.85 20 101.033333 20 101.216667 20 101.4 19.8253968 101.583333L17.3809524 104.15 18.0793651 107.633333C18.2539683 107.633333 18.2539683 107.816667 18.0793651 108zM121.747533 17.2352941L119.069717 16.8823529 117.284506 18.8235294C117.284506 19 117.105985 19 116.927464 19 116.927464 19 116.927464 19 116.748943 19 116.570422 19 116.391901 18.8235294 116.391901 18.6470588L115.856337 16 113.357042 14.9411765C113.178521 14.9411765 113.178521 14.7647059 113 14.5882353 113 14.4117647 113 14.2352941 113.178521 14.2352941L115.499295 13 115.677816 10.3529412C115.677816 10.1764706 115.856337 10 116.034858 10 116.213379 10 116.391901 10 116.570422 10L118.534154 11.7647059 121.21197 11.2352941C121.390491 11.2352941 121.569012 11.2352941 121.569012 11.4117647 121.747533 11.5882353 121.747533 11.7647059 121.569012 11.9411765L120.497885 14.4117647 121.926054 16.7058824C121.926054 16.8823529 121.926054 17.0588235 121.926054 17.2352941 122.104575 17.2352941 121.926054 17.4117647 121.747533 17.2352941zM31.8855585 143.058824C31.7113319 143.235294 31.7113319 143.235294 31.5371052 143.235294L28.9237057 142.882353 27.1814393 144.823529C27.1814393 145 27.0072127 145 26.832986 145 26.832986 145 26.832986 145 26.6587594 145 26.4845327 145 26.3103061 144.823529 26.3103061 144.647059L25.7876262 142 23.3484533 140.941176C23.1742266 140.941176 23.1742266 140.764706 23 140.588235 23 140.411765 23 140.235294 23.1742266 140.235294L25.4391729 139 25.6133996 136.352941C25.6133996 136.176471 25.7876262 136 25.9618528 136 26.1360795 136 26.3103061 136 26.4845327 136L28.4010258 137.764706 31.0144253 137.235294C31.1886519 137.235294 31.3628786 137.235294 31.3628786 137.411765 31.5371052 137.588235 31.5371052 137.764706 31.3628786 137.941176L30.3175188 140.411765 31.7113319 142.705882C32.0597851 142.705882 32.0597851 142.882353 31.8855585 143.058824zM146.239216 49.2131148L146.411765 52.6393443C146.411765 52.8196721 146.411765 53 146.239216 53 146.239216 53 146.066667 53 146.066667 53 146.066667 53 145.894118 53 145.894118 53L143.133333 51.0163934 140.027451 52.2786885C139.854902 52.2786885 139.682353 52.2786885 139.509804 52.2786885 139.337255 52.0983607 139.337255 51.9180328 139.337255 51.9180328L140.2 48.6721311 138.129412 45.9672131C137.956863 45.7868852 137.956863 45.6065574 138.129412 45.4262295 138.129412 45.2459016 138.301961 45.2459016 138.47451 45.2459016L141.752941 45.0655738 143.478431 42.1803279C143.65098 42 143.65098 42 143.823529 42 143.996078 42 144.168627 42.1803279 144.168627 42.3606557L145.376471 45.6065574 148.654902 46.5081967C148.827451 46.5081967 149 46.6885246 149 46.8688525 149 47.0491803 149 47.2295082 148.827451 47.2295082L146.239216 49.2131148zM90.4745098 142.193548L93.7529412 142.016129 95.4784314 139.177419C95.4784314 139 95.6509804 139 95.8235294 139 95.9960784 139 96.1686275 139.177419 96.1686275 139.354839L97.3764706 142.548387 100.654902 143.435484C100.827451 143.435484 101 143.612903 101 143.790323 101 143.967742 101 144.145161 100.827451 144.145161L98.2392157 146.274194 98.4117647 149.645161C98.4117647 149.822581 98.4117647 150 98.2392157 150 98.2392157 150 98.0666667 150 98.0666667 150 98.0666667 150 97.8941176 150 97.8941176 150L95.1333333 148.048387 92.027451 149.290323C91.854902 149.290323 91.6823529 149.290323 91.5098039 149.290323 91.3372549 149.112903 91.3372549 148.935484 91.3372549 148.758065L92.2 145.564516 90.1294118 142.903226C89.9568627 142.725806 89.9568627 142.548387 90.1294118 142.370968 90.1294118 142.370968 90.3019608 142.370968 90.4745098 142.193548zM131.707819 132.075862L134.061728 134.465517 137.502058 133.953448C137.683128 133.953448 137.864198 133.953448 137.864198 134.124138 138.045267 134.294828 138.045267 134.465517 137.864198 134.636207L136.234568 137.537931 137.864198 140.439655C137.864198 140.610345 137.864198 140.781034 137.864198 140.951724 137.683128 141.122414 137.502058 141.122414 137.320988 141.122414L133.880658 140.439655 131.526749 142.82931C131.526749 142.82931 131.345679 143 131.164609 143 131.164609 143 130.983539 143 130.983539 143 130.802469 143 130.621399 142.82931 130.621399 142.658621L130.259259 139.415517 127.18107 137.708621C127 137.708621 127 137.537931 127 137.367241 127 137.196552 127.18107 137.025862 127.18107 137.025862L130.259259 135.660345 130.802469 132.417241C130.802469 132.246552 130.983539 132.075862 131.164609 132.075862 131.345679 131.905172 131.526749 132.075862 131.707819 132.075862z"/>
      <path d="M150.192628,76.4099368 L85.1272295,76.4099368 L145.312723,101.148341 C146.216409,101.509486 146.758621,102.59292 146.216409,103.495781 C145.854935,104.21807 145.312723,104.579215 144.589774,104.579215 C144.409037,104.579215 144.047562,104.579215 143.866825,104.398643 L84.9464923,80.201955 L120.370987,112.163251 C121.093936,112.885541 121.093936,113.968974 120.551724,114.691264 C120.19025,115.052408 119.648038,115.232981 119.286564,115.232981 C118.925089,115.232981 118.382878,115.052408 118.021403,114.691264 L82.4161712,82.9105394 L112.599287,139.068524 C113.141498,139.971385 112.780024,141.054819 111.876338,141.596536 C111.6956,141.596536 111.334126,141.596536 110.972652,141.596536 C110.249703,141.596536 109.707491,141.235391 109.346017,140.693674 L79.3436385,84.5356901 L85.1272295,124.081023 C85.3079667,124.983885 84.5850178,126.067318 83.6813317,126.067318 C83.5005945,126.067318 83.5005945,126.067318 83.5005945,126.067318 C82.5969084,126.067318 81.8739596,125.345029 81.6932224,124.442168 L75.7288942,84.8968347 L63.4387634,147.555422 C63.2580262,148.458283 62.5350773,149 61.6313912,149 C61.450654,149 61.450654,149 61.2699168,149 C60.3662307,148.819428 59.6432818,147.916566 59.824019,146.833132 L72.1141498,84.3551178 L45.1843044,129.498192 C44.82283,130.039909 44.2806183,130.401053 43.5576694,130.401053 C43.196195,130.401053 42.8347206,130.401053 42.6539834,130.220481 C41.7502973,129.678764 41.56956,128.59533 42.1117717,127.692469 L69.0416171,82.5493948 L19.7003567,122.997589 C19.3388823,123.358734 18.9774078,123.358734 18.6159334,123.358734 C18.0737218,123.358734 17.5315101,123.178162 17.1700357,122.636445 C16.4470868,121.914156 16.627824,120.650149 17.3507729,120.108433 L66.6920333,79.6602381 L29.098692,93.2031603 C28.9179548,93.2031603 28.7372176,93.3837326 28.5564804,93.3837326 C27.8335315,93.3837326 27.1105826,92.8420158 26.9298454,92.1197266 C26.568371,91.2168651 27.1105826,90.1334313 28.0142687,89.7722867 L65.60761,76.2293645 L1.80737218,76.2293645 C0.72294887,76.2293645 0,75.5070753 0,74.4236415 C0,73.3402077 0.72294887,72.6179185 1.80737218,72.6179185 L66.8727705,72.6179185 L6.68727705,48.0600862 C5.78359096,47.6989416 5.24137931,46.6155078 5.78359096,45.7126463 C6.1450654,44.8097849 7.2294887,44.268068 8.13317479,44.8097849 L67.0535077,69.0064726 L26.9298454,32.8920133 C26.2068966,32.1697241 26.2068966,31.0862903 26.7491082,30.3640011 C27.2913199,29.6417119 28.5564804,29.6417119 29.2794293,30.1834288 L69.4030916,66.2978882 L39.2199762,10.1399039 C38.6777646,9.23704243 39.039239,8.15360865 39.9429251,7.61189176 C40.8466112,7.07017487 41.9310345,7.43131946 42.4732461,8.33418094 L72.6563615,64.4921652 L67.2342449,28.9194228 C67.0535077,28.0165613 67.7764566,26.9331275 68.6801427,26.9331275 C69.5838288,26.7525552 70.6682521,27.4748444 70.6682521,28.3777059 L76.0903686,63.9504483 L88.3804994,1.47243367 C88.5612366,0.569572189 89.4649227,-0.152716998 90.549346,0.027855299 C91.4530321,0.208427596 92.175981,1.11128908 91.9952438,2.19472286 L79.705113,64.6727375 L105.91201,20.7936694 C106.454221,19.8908079 107.538644,19.7102356 108.442331,20.2519525 C109.346017,20.7936694 109.526754,21.8771032 108.984542,22.7799647 L82.7776457,66.4784605 L132.118906,26.030266 C132.841855,25.4885491 134.107015,25.4885491 134.649227,26.2108383 C135.372176,26.9331275 135.191439,28.1971336 134.46849,28.7388505 L85.1272295,69.3676172 L124.70868,55.1024058 C125.612366,54.7412612 126.69679,55.2829781 127.058264,56.1858395 C127.419738,57.088701 126.877527,58.1721348 125.973841,58.5332794 L86.39239,72.7984908 L150.192628,72.7984908 C151.277051,72.7984908 152,73.52078 152,74.6042138 C152,75.6876476 151.096314,76.4099368 150.192628,76.4099368 Z"/>
      <path d="M67.4606311 21C67.2799595 21 67.2799595 21 67.2799595 21 66.3766015 21 65.6539151 20.2646505 65.4732435 19.3454636L64.0278706 9.05057018C63.847199 8.13138327 64.5698854 7.02835898 65.4732435 7.02835898 66.3766015 6.84452159 67.4606311 7.57987112 67.4606311 8.49905803L68.9060039 18.7939514C69.2673471 19.8969757 68.5446607 21 67.4606311 21zM84.1793007 131.030717C84.8713576 130.831594 85.7018258 131.628084 85.7018258 132.623696L85.9786485 135.809654C86.1170599 136.805266 85.5634144 138 84.8713576 138 84.7329462 138 84.7329462 138 84.7329462 138 84.0408894 138 83.4872439 137.20351 83.3488325 136.207899L83.0720098 133.021941C82.795187 132.225451 83.3488325 131.229839 84.1793007 131.030717zM129.385324 125C129.031942 125 128.50187 124.818752 128.148489 124.456256L123.554533 120.106306C122.84777 119.381315 122.84777 118.293827 123.377842 117.568835 124.084605 116.843844 125.144748 116.843844 125.851511 117.387588L130.445467 121.737538C131.15223 122.462529 131.15223 123.550017 130.622158 124.275008 130.445467 124.818752 129.915395 125 129.385324 125zM21.3853235 27C21.0319422 27 20.5018704 26.8145505 20.1484891 26.4436516L15.5545327 22.1783141C14.8477702 21.4365163 14.8477702 20.3238196 15.3778421 19.5820218 16.0846046 18.8402239 17.1447484 18.8402239 17.8515109 19.3965723L22.4454673 23.8473592C23.1522298 24.5891571 23.1522298 25.7018538 22.6221579 26.4436516 22.4454673 26.8145505 21.9153954 27 21.3853235 27z"/>
    </g>
  </g>
</svg>
