<svg xmlns="http://www.w3.org/2000/svg" width="200" height="200" viewBox="0 0 200 200">
  <g fill="none" fill-rule="evenodd">
    <ellipse cx="99.89" cy="99.802" fill="#EC008C" opacity=".402" rx="99.89" ry="99.802"/>
    <path fill="#C90177" fill-rule="nonzero" d="M57.1623253 123.820404C55.3461031 122.60913 53.5298809 121.549264 51.8650106 120.18658 48.9893255 118.06685 46.2649923 115.79571 43.3893072 113.67598 38.5460481 109.890747 32.9460298 107.165379 27.0433078 105.348467 20.8378821 103.531555 14.9351601 101.411824 9.03243808 98.6864567 6.61080854 97.6265914 4.64323454 95.8096795 2.97836423 93.689949 1.31349391 91.4188092.25403099 88.6934414.102679143 85.8166643-.351376396 80.8201566.708086529 75.823649 3.12971607 71.4327786 4.94593823 68.1017735 7.82162331 65.527815 11.1513639 63.8623125 14.7838082 62.0454006 18.7189563 60.6827167 22.8054561 59.9256701 30.0703447 58.2601676 37.1838815 55.8376184 43.8433628 52.6580226 45.8109368 51.5981574 47.7785108 50.5382921 49.8974366 49.6298362 54.1352883 47.5101056 59.1298993 47.5101056 63.5191028 49.3270175 65.9407323 50.2354735 68.0596582 51.5981574 70.0272322 53.2636599 72.7515654 55.8376184 74.4164358 59.1686235 74.7191394 62.8024472 75.9299542 70.5243227 77.8975282 77.9433795 80.6218615 85.211027 82.2867318 89.6018973 84.1029539 93.9927677 85.6164724 98.5350474 86.8272872 101.866052 87.2813427 105.348467 86.8272872 108.830881 86.0705279 113.52457 83.9516021 117.764031 80.4705096 121.095036 77.2921208 124.426042 73.0542691 126.545772 68.5137137 127 66.6974916 127 65.0326213 126.848591 63.2163991 126.545772 62.7623436 126.545772 62.1569362 126.394363 61.7028806 126.242953L57.1623253 123.820404zM76.1796768 1.5426088C77.2356185 2.5944687 78.1407113 3.6463286 78.8949554 4.8484542 80.7051411 7.7035025 81.3085363 11.1596136 80.8559899 14.465459 80.2525946 20.1755556 77.6881649 25.5851208 73.4643983 29.492029 70.8999685 32.1968116 67.2795971 33.8497343 63.5083769 34 59.5863079 34 55.9659365 31.7460145 54.4574484 28.1396377 52.6472627 23.7819324 52.4964139 18.97343 54.1557508 14.6157247 55.6642389 9.957488 58.5303662 5.7500484 62.6032841 2.8950001 65.6202602.340483196 69.6931781-.561111004 73.4643983.340483196 73.6152471.340483196 73.7660959.340483196 73.7660959.340483196L76.1796768 1.5426088zM42.4738239 36.2565296C40.5359526 40.6322539 36.9583441 44.253543 32.4863334 46.0641875 27.1199206 48.4783802 20.8591057 46.0641875 18.4740334 40.6322539 18.1758993 40.0287057 18.0268323 39.5760446 17.8777653 38.9724964 16.387095 33.993224 16.8342961 28.7121775 18.9212344 24.0346791 20.4119046 20.262503 23.095111 16.9429881 26.3745855 14.5287954 28.9087249 12.5672638 32.0391323 11.6619416 35.1695398 12.1146027 38.8962153 12.5672638 42.1756898 15.1323436 43.517293 18.7536326 45.9023654 24.1855662 45.1570303 29.6174997 43.0700919 35.0494333 42.9210249 35.3512074 42.7719579 35.8038685 42.4738239 36.2565296zM82.4501158 29.0571647C85.1369386 23.8766125 89.4657088 19.9150137 94.8393545 17.9342143 97.8247132 16.7152608 101.108608 16.7152608 104.093967 17.7818451 106.183718 18.543691 107.825665 20.0673828 108.572005 22.2005514 111.557363 29.6666415 109.766148 38.1993158 104.093967 43.6846064 101.108608 46.8843593 97.2276415 49.0175279 92.8988713 49.7793738 87.0774218 50.9983273 81.4052402 47.0367285 80.2110967 41.0943303 80.0618288 40.1801152 79.9125609 39.1135309 80.0618288 38.1993158 80.0618288 34.9995629 80.9574364 31.79981 82.4501158 29.0571647zM86.9771413 67.4358354C89.6880522 62.2399103 92.3989632 58.7250198 96.6159358 56.4326999 99.4774529 54.9044867 102.790789 54.598844 105.953518 55.515772 107.45958 55.974236 108.815035 56.8911639 109.718672 58.2665558 113.785039 62.8511956 114.989888 69.11687 113.182614 74.9240803 112.128371 78.8974348 110.019884 82.5651466 107.007761 85.4687518 102.489576 89.7477489 96.4653296 90.0533916 91.34472 86.8441437 88.7844152 85.3159305 86.8265351 83.0236106 85.7722919 80.1200054 85.0192611 77.8276855 84.7180488 75.3825443 85.3204734 73.0902244 85.7722919 70.9507259 86.6759289 68.658406 86.9771413 67.4358354z" transform="translate(37 36)"/>
  </g>
</svg>
