<svg xmlns="http://www.w3.org/2000/svg" width="335" height="172" viewBox="0 0 335 172">
  <g fill="none" fill-rule="evenodd" transform="translate(.51 .95)">
    <path fill="#005E9C" d="M189.268278,124.702329 L189.268278,140.221329 L211.183278,140.221329 L211.183278,134.229329 L195.392278,134.229329 L195.392278,126.836329 L204.184278,126.836329 L204.184278,124.702329 L189.268278,124.702329 Z M219.967278,124.702329 C221.630278,125.903329 223.888278,126.619329 226.517278,127.230329 C232.291278,128.542329 233.341278,129.417329 233.341278,131.386329 C233.341278,133.703329 231.635278,134.709329 228.005278,134.709329 C225.074278,134.709329 222.318278,133.703329 220.175278,131.211329 L215.757278,135.147329 C218.075278,138.559329 222.537278,140.702329 227.655278,140.702329 C236.009278,140.702329 239.683278,136.765329 239.683278,130.947329 C239.683278,128.032329 238.649278,126.076329 237.078278,124.702329 L219.967278,124.702329 Z M246.835278,124.702329 L246.835278,140.221329 L260.745278,140.221329 C267.306278,140.221329 271.637278,136.765329 271.637278,130.336329 C271.637278,127.831329 270.620278,125.955329 269.092278,124.708329 L246.835278,124.702329 Z M276.952278,124.702329 C276.951278,124.773329 276.951278,124.842329 276.951278,124.911329 C276.951278,134.229329 281.894278,140.702329 290.248278,140.702329 C298.603278,140.702329 303.546278,134.229329 303.546278,124.911329 C303.546278,124.842329 303.545278,124.773329 303.545278,124.705329 L297.246278,124.702329 C297.247278,124.775329 297.247278,124.843329 297.247278,124.911329 C297.247278,130.379329 295.191278,134.622329 290.248278,134.622329 C285.306278,134.622329 283.250278,130.379329 283.250278,124.911329 C283.250278,124.843329 283.250278,124.775329 283.251278,124.707329 L276.952278,124.702329 Z M265.338278,130.423329 C265.338278,132.828329 263.938278,134.403329 260.964278,134.403329 L252.828278,134.403329 L252.828278,126.486329 L260.964278,126.486329 C263.938278,126.486329 265.338278,127.799329 265.338278,130.423329 L265.338278,130.423329 Z"/>
    <path fill="#005E9C" d="M204.184278,124.702329 L204.184278,120.887329 L195.392278,120.887329 L195.392278,115.595329 L210.527278,115.595329 L210.527278,109.602329 L189.268278,109.602329 L189.268278,124.702329 L204.184278,124.702329 Z M237.078278,124.702329 C235.066278,122.943329 232.175278,122.139329 229.448278,121.500329 C224.593278,120.363329 223.280278,119.750329 223.280278,117.826329 C223.280278,116.470329 224.375278,115.070329 227.655278,115.070329 C230.454278,115.070329 232.641278,116.207329 234.609278,118.219329 L239.027278,113.933329 C236.141278,110.915329 232.641278,109.121329 227.873278,109.121329 C221.837278,109.121329 216.938278,112.533329 216.938278,118.088329 C216.938278,121.312329 218.061278,123.325329 219.967278,124.702329 L237.078278,124.702329 Z M269.092278,124.702329 C268.566278,124.278329 267.978278,123.923329 267.350278,123.643329 C269.362278,122.418329 270.586278,120.319329 270.586278,117.694329 C270.586278,112.446329 266.825278,109.602329 260.876278,109.602329 L246.835278,109.602329 L246.835278,124.702329 L269.092278,124.702329 Z M283.251278,124.702329 C283.302278,119.339329 285.368278,115.201329 290.248278,115.201329 C295.129278,115.201329 297.195278,119.338329 297.246278,124.706329 L303.545278,124.702329 C303.472278,115.499329 298.541278,109.121329 290.248278,109.121329 C281.956278,109.121329 277.024278,115.499329 276.952278,124.705329 L283.251278,124.702329 Z M211.183278,101.796329 L211.183278,95.8043285 L195.392278,95.8043285 L195.392278,88.4123285 L204.184278,88.4123285 L204.184278,82.4633285 L195.392278,82.4633285 L195.392278,77.1703285 L210.527278,77.1703285 L210.527278,71.1783285 L189.268278,71.1783285 L189.268278,101.796329 L211.183278,101.796329 Z M295.935278,86.4873285 C295.935278,91.9553285 293.879278,96.1983285 288.936278,96.1983285 C283.994278,96.1983285 281.938278,91.9553285 281.938278,86.4873285 C281.938278,81.0193285 283.994278,76.7773285 288.936278,76.7773285 C293.879278,76.7773285 295.935278,81.0193285 295.935278,86.4873285 Z M327.844278,86.4873285 C327.844278,91.9553285 325.788278,96.1983285 320.845278,96.1983285 C315.903278,96.1983285 313.847278,91.9553285 313.847278,86.4873285 C313.847278,81.0193285 315.903278,76.7773285 320.845278,76.7773285 C325.788278,76.7773285 327.844278,81.0193285 327.844278,86.4873285 Z M334.142278,86.4873285 C334.142278,77.1703285 329.200278,70.6973285 320.845278,70.6973285 C312.491278,70.6973285 307.548278,77.1703285 307.548278,86.4873285 C307.548278,95.8043285 312.491278,102.278329 320.845278,102.278329 C329.200278,102.278329 334.142278,95.8043285 334.142278,86.4873285 Z M302.234278,86.4873285 C302.234278,77.1703285 297.291278,70.6973285 288.936278,70.6973285 C280.582278,70.6973285 275.639278,77.1703285 275.639278,86.4873285 C275.639278,95.8043285 280.582278,102.278329 288.936278,102.278329 C297.291278,102.278329 302.234278,95.8043285 302.234278,86.4873285 Z M270.762278,80.8893285 C270.762278,74.3713285 265.994278,71.1783285 260.220278,71.1783285 L246.835278,71.1783285 L246.835278,101.796329 L252.959278,101.796329 L252.959278,90.9493285 L259.696278,90.9493285 C266.038278,90.9493285 270.762278,87.9753285 270.762278,80.8893285 Z M264.463278,81.0193285 C264.463278,83.6883285 262.932278,85.0003285 260.089278,85.0003285 L252.959278,85.0003285 L252.959278,77.1273285 L260.002278,77.1273285 C262.714278,77.1273285 264.463278,78.3523285 264.463278,81.0193285 Z M239.683278,92.5233285 C239.683278,85.8753285 234.303278,84.2133285 229.449278,83.0763285 C224.593278,81.9393285 223.280278,81.3263285 223.280278,79.4023285 C223.280278,78.0453285 224.374278,76.6463285 227.655278,76.6463285 C230.454278,76.6463285 232.641278,77.7833285 234.609278,79.7953285 L239.027278,75.5093285 C236.141278,72.4903285 232.641278,70.6973285 227.873278,70.6973285 C221.837278,70.6973285 216.938278,74.1093285 216.938278,79.6643285 C216.938278,85.7003285 220.875278,87.4943285 226.517278,88.8063285 C232.291278,90.1183285 233.341278,90.9933285 233.341278,92.9613285 C233.341278,95.2793285 231.635278,96.2853285 228.005278,96.2853285 C225.074278,96.2853285 222.318278,95.2793285 220.175278,92.7863285 L215.757278,96.7233285 C218.075278,100.135329 222.537278,102.278329 227.655278,102.278329 C236.009278,102.278329 239.683278,98.3413285 239.683278,92.5233285 Z M264.376278,118.176329 C264.376278,119.882329 263.457278,121.062329 260.920278,121.062329 L252.828278,121.062329 L252.828278,115.245329 L260.614278,115.245329 C263.282278,115.245329 264.376278,116.251329 264.376278,118.176329 L264.376278,118.176329 Z"/>
    <path fill="#0092C6" d="M118.811278,118.809329 C100.862278,136.757329 79.1052781,148.214329 58.9932781,151.398329 C81.5352781,178.138329 122.838278,157.803329 140.410278,140.232329 C141.035278,139.576329 141.914278,139.170329 142.893278,139.170329 C144.788278,139.170329 146.325278,140.707329 146.325278,142.603329 C146.325278,143.579329 145.921278,144.457329 145.267278,145.081329 C117.683278,172.623329 77.6682781,179.948329 56.0462781,158.326329 C54.1492781,156.430329 52.4752781,154.389329 51.0172781,152.227329 C36.3022781,152.931329 22.9042781,148.823329 13.1952781,139.113329 C-11.1777219,114.741329 -0.277721913,67.2763285 33.5002781,33.4993285 C67.2772781,-0.277671475 114.743278,-11.1776715 139.116278,13.1953285 C163.489278,37.5673285 152.588278,85.0323285 118.811278,118.809329 Z M113.958278,113.955329 C132.606278,95.3073285 143.089278,73.5283285 145.048278,54.4873285 C126.028278,44.8053285 96.7252781,51.3803285 74.1452781,73.9603285 C51.5032781,96.6013285 44.9532781,126.002329 54.7512781,145.017329 C73.7302781,142.989329 95.3952781,132.517329 113.958278,113.955329 Z M38.3532781,38.3523285 C5.26827809,71.4363285 -2.01672191,114.196329 18.0482781,134.260329 C25.3262781,141.538329 35.5722781,145.222329 47.2802781,145.377329 C37.6262781,122.990329 46.5842781,91.8143285 69.2922781,69.1073285 C91.9362781,46.4633285 123.003278,37.4913285 145.376278,47.0163285 C145.169278,35.4183285 141.486278,25.2713285 134.263278,18.0483285 C114.198278,-2.01667147 71.4382781,5.26832853 38.3532781,38.3523285 L38.3532781,38.3523285 Z"/>
  </g>
</svg>
